HIERARCHY
ROOT Hips
{
  OFFSET 52.0655 93.9676 7.98162
  CHANNELS 6 Xposition Yposition Zposition Zrotation Xrotation Yrotation
  JOINT spine
  {
    OFFSET 0 7.4756 0.429885
    CHANNELS 3 Zrotation Xrotation Yrotation
    JOINT spine1
    {
      OFFSET 0 9.92301 0
      CHANNELS 3 Zrotation Xrotation Yrotation
      JOINT spine2
      {
        OFFSET 0 9.50804 0
        CHANNELS 3 Zrotation Xrotation Yrotation
        JOINT Neck
        {
          OFFSET 0 24.4111 1.16384
          CHANNELS 3 Zrotation Xrotation Yrotation
          JOINT Head
          {
            OFFSET 0 7.37523 0
            CHANNELS 3 Zrotation Xrotation Yrotation
            End Site
            {
              OFFSET 0 17.8522 -5.88741
            }
          }
        }
        JOINT RightShoulder
        {
          OFFSET -4.00356 10.2679 -0.557468
          CHANNELS 3 Zrotation Xrotation Yrotation
          JOINT RightArm
          {
            OFFSET 0 13.4673 0
            CHANNELS 3 Zrotation Xrotation Yrotation
            JOINT RightArmRoll
            {
              OFFSET 0 6.79858 0
              CHANNELS 3 Zrotation Xrotation Yrotation
              JOINT RightForeArm
              {
                OFFSET 0 19.8018 0
                CHANNELS 3 Zrotation Xrotation Yrotation
                JOINT RightForeArmRoll
                {
                  OFFSET 0 7.62905 0
                  CHANNELS 3 Zrotation Xrotation Yrotation
                  JOINT RightHand
                  {
                    OFFSET 0 15.3098 0
                    CHANNELS 3 Zrotation Xrotation Yrotation
                    End Site
                    {
                      OFFSET 0 0 0
                    }
                  }
                }
              }
            }
          }
        }
        JOINT LeftShoulder
        {
          OFFSET 4.00356 10.2679 -0.557468
          CHANNELS 3 Zrotation Xrotation Yrotation
          JOINT LeftArm
          {
            OFFSET 0 13.4673 0
            CHANNELS 3 Zrotation Xrotation Yrotation
            JOINT LeftArmRoll
            {
              OFFSET 0 6.79857 0
              CHANNELS 3 Zrotation Xrotation Yrotation
              JOINT LeftForeArm
              {
                OFFSET 0 19.8018 0
                CHANNELS 3 Zrotation Xrotation Yrotation
                JOINT LeftForeArmRoll
                {
                  OFFSET 0 7.62905 0
                  CHANNELS 3 Zrotation Xrotation Yrotation
                  JOINT LeftHand
                  {
                    OFFSET 0 15.3098 0
                    CHANNELS 3 Zrotation Xrotation Yrotation
                    End Site
                    {
                      OFFSET 0 0 0
                    }
                  }
                }
              }
            }
          }
        }
      }
    }
  }
  JOINT RightUpLeg
  {
    OFFSET -6.62609 -1.21505 -1.01927
    CHANNELS 3 Zrotation Xrotation Yrotation
    JOINT RightUpLegRoll
    {
      OFFSET 0 17.9517 0
      CHANNELS 3 Zrotation Xrotation Yrotation
      JOINT RightLeg
      {
        OFFSET 0 -22.2304 0
        CHANNELS 3 Zrotation Xrotation Yrotation
        JOINT RightLegRoll
        {
          OFFSET 0 22.3032 0
          CHANNELS 3 Zrotation Xrotation Yrotation
          JOINT RightFoot
          {
            OFFSET 0 18.5636 0
            CHANNELS 3 Zrotation Xrotation Yrotation
            JOINT RightToeBase
            {
              OFFSET 0 15.5183 0
              CHANNELS 3 Zrotation Xrotation Yrotation
              End Site
              {
                OFFSET 0.00657761 7.51539 -0.866263
              }
            }
          }
        }
      }
    }
  }
  JOINT LeftUpLeg
  {
    OFFSET 6.62609 -1.21505 -1.01927
    CHANNELS 3 Zrotation Xrotation Yrotation
    JOINT LeftUpLegRoll
    {
      OFFSET 0 17.9518 0
      CHANNELS 3 Zrotation Xrotation Yrotation
      JOINT LeftLeg
      {
        OFFSET 0 22.2303 0
        CHANNELS 3 Zrotation Xrotation Yrotation
        JOINT LeftLegRoll
        {
          OFFSET 0 22.5093 0
          CHANNELS 3 Zrotation Xrotation Yrotation
          JOINT LeftFoot
          {
            OFFSET 0 18.3575 0
            CHANNELS 3 Zrotation Xrotation Yrotation
            JOINT LeftToeBase
            {
              OFFSET 0 15.5183 0
              CHANNELS 3 Zrotation Xrotation Yrotation
              End Site
              {
                OFFSET -0.029478 7.51539 -0.866263
              }
            }
          }
        }
      }
    }
  }
}
MOTION
Frames: 6
Frame Time: 0.00208333
54.437 93.7896 8.12309 -0.901933 -2.92837 2.58614 0.269138 -1.19648 0.0276396 0.544591 1.60988 0.0406363 0.54475 3.25493 0.0314266 -11.7801 0.843423 -2.23607 12.1684 7.558 -3.80671 66.4564 -1.84356 -1.90105 108.022 -2.96356 26.7023 -2.08296e-005 -3.0237e-006 2.36714e-006 3.64887 5.27925 -1.53094 7.73786e-006 -1.77876e-006 -3.00746 8.02978 -4.95144 0.697663 -78.8339 -0.830152 2.61655 -92.9318 5.71729 -27.6488 5.80845e-006 9.14104e-007 2.53574e-006 -1.05692 7.10852 0.971363 -1.19925e-005 -7.65474e-006 3.00098 -8.03016 -4.95137 -0.697656 -179.848 0.906334 -1.29813 180 7.01544e-015 178.909 178.599 9.63345 179.636 -2.43572e-006 -6.39284e-006 0.156033 -19.2751 68.7797 20.1885 8.13649 25.2327 -3.48774 -178.028 -0.70429 0.867886 4.54188e-006 -4.6773e-006 -0.963834 -4.98048 -4.64974 -0.0906583 4.12191e-006 -2.02802e-007 -0.0527215 18.3301 67.8334 -19.3997 -8.13649 25.2327 3.48774 
54.436 93.7662 8.11589 -0.908834 -2.91979 2.57184 0.26913 -1.20086 0.0251582 0.544973 1.60112 0.035425 0.545189 3.24616 0.026254 -11.7528 0.957982 -2.22515 12.1576 7.50291 -3.79678 66.4796 -1.83539 -1.89899 107.948 -2.85449 26.8742 -2.08296e-005 -3.0237e-006 2.36714e-006 3.51635 5.1966 -1.52765 7.73786e-006 -1.77876e-006 -3.00746 8.02978 -4.95144 0.697663 -78.843 -0.830496 2.61755 -92.7584 5.80531 -27.7152 5.80845e-006 9.14104e-007 2.53574e-006 -1.02452 7.09596 0.968193 -1.19925e-005 -7.65474e-006 3.00098 -8.03016 -4.95137 -0.697656 -179.843 0.91836 -1.2996 180 7.01544e-015 178.909 178.592 9.62298 179.637 -2.43572e-006 -6.39284e-006 0.155937 -19.2716 68.7759 20.1854 8.13649 25.2327 -3.48774 -178.023 -0.690337 0.869227 4.54188e-006 -4.6773e-006 -0.963834 -4.97503 -4.65008 -0.0904674 4.12191e-006 -2.02802e-007 -0.0527215 18.33 67.8333 -19.3995 -8.13649 25.2327 3.48774 
54.4297 93.7716 8.09889 -0.915595 -2.91141 2.55784 0.269115 -1.20526 0.0226504 0.545381 1.5923 0.030151 0.545655 3.23734 0.0210389 -11.7262 1.07486 -2.21399 12.1469 7.44601 -3.78677 66.5033 -1.82631 -1.8965 107.875 -2.74842 27.0494 -2.08296e-005 -3.0237e-006 2.36714e-006 3.38206 5.11465 -1.52439 7.73786e-006 -1.77876e-006 -3.00746 8.02978 -4.95144 0.697663 -78.8554 -0.829843 2.61845 -92.5851 5.89001 -27.7818 5.80845e-006 9.14104e-007 2.53574e-006 -0.992523 7.08624 0.965042 -1.19925e-005 -7.65474e-006 3.00098 -8.03016 -4.95137 -0.697656 -179.838 0.929957 -1.30076 180 7.01544e-015 178.909 178.585 9.61231 179.638 -2.43572e-006 -6.39284e-006 0.155871 -19.2682 68.772 20.1824 8.13649 25.2327 -3.48774 -178.018 -0.676731 0.870704 4.54188e-006 -4.6773e-006 -0.963834 -4.96955 -4.65035 -0.0902839 4.12191e-006 -2.02802e-007 -0.0527215 18.33 67.8332 -19.3993 -8.13649 25.2327 3.48774 
54.4269 93.7887 8.09095 -0.922259 -2.90317 2.54406 0.269097 -1.20969 0.0201241 0.545809 1.58344 0.024833 0.546141 3.22849 0.0157941 -11.7001 1.19335 -2.20265 12.1364 7.38783 -3.77671 66.5275 -1.81658 -1.89372 107.804 -2.64453 27.2268 -2.08296e-005 -3.0237e-006 2.36714e-006 3.24654 5.03317 -1.52116 7.73786e-006 -1.77876e-006 -3.00746 8.02978 -4.95144 0.697663 -78.87 -0.828492 2.61929 -92.4119 5.97234 -27.8487 5.80845e-006 9.14104e-007 2.53574e-006 -0.960815 7.0785 0.961906 -1.19925e-005 -7.65474e-006 3.00098 -8.03016 -4.95137 -0.697656 -179.834 0.941253 -1.3017 180 7.01544e-015 178.909 178.578 9.60151 179.639 -2.43572e-006 -6.39284e-006 0.155826 -19.2647 68.7682 20.1794 8.13649 25.2327 -3.48774 -178.013 -0.663367 0.872277 4.54188e-006 -4.6773e-006 -0.963834 -4.96406 -4.65056 -0.0901058 4.12191e-006 -2.02802e-007 -0.0527215 18.33 67.8332 -19.3991 -8.13649 25.2327 3.48774 
54.4152 93.7826 8.07551 -0.928864 -2.89502 2.5304 0.269075 -1.21412 0.0175872 0.546246 1.57457 0.01949 0.546637 3.21961 0.0105323 -11.6744 1.31278 -2.19122 12.1259 7.32893 -3.76662 66.5519 -1.80649 -1.89077 107.733 -2.54202 27.4055 -2.08296e-005 -3.0237e-006 2.36714e-006 3.11031 4.95197 -1.51793 7.73786e-006 -1.77876e-006 -3.00746 8.02978 -4.95144 0.697663 -78.886 -0.826741 2.62009 -92.2386 6.05329 -27.9156 5.80845e-006 9.14104e-007 2.53574e-006 -0.92927 7.0719 0.958777 -1.19925e-005 -7.65474e-006 3.00098 -8.03016 -4.95137 -0.697656 -179.829 0.952378 -1.30251 180 7.01544e-015 178.909 178.571 9.59066 179.64 -2.43572e-006 -6.39284e-006 0.155793 -19.2613 68.7644 20.1764 8.13649 25.2327 -3.48774 -178.008 -0.650141 0.873905 4.54188e-006 -4.6773e-006 -0.963834 -4.95856 -4.65073 -0.0899306 4.12191e-006 -2.02802e-007 -0.0527215 18.33 67.8332 -19.399 -8.13649 25.2327 3.48774 
54.4106 93.7915 8.06577 -0.935452 -2.8869 2.51678 0.269053 -1.21855 0.0150477 0.546684 1.56568 0.0141407 0.547135 3.21073 0.00526643 -11.6488 1.43243 -2.17978 12.1154 7.26984 -3.75654 66.5764 -1.7963 -1.88778 107.661 -2.44007 27.5846 -2.08296e-005 -3.0237e-006 2.36714e-006 2.97392 4.87084 -1.51471 7.73786e-006 -1.77876e-006 -3.00746 8.02978 -4.95144 0.697663 -78.9023 -0.824891 2.62088 -92.0652 6.13381 -27.9827 5.80845e-006 9.14104e-007 2.53574e-006 -0.897766 7.06559 0.955651 -1.19925e-005 -7.65474e-006 3.00098 -8.03016 -4.95137 -0.697656 -179.825 0.963459 -1.30329 180 7.01544e-015 178.909 178.564 9.57977 179.641 -2.43572e-006 -6.39284e-006 0.155763 -19.2579 68.7606 20.1734 8.13649 25.2327 -3.48774 -178.004 -0.63695 0.875546 4.54188e-006 -4.6773e-006 -0.963834 -4.95306 -4.6509 -0.0897561 4.12191e-006 -2.02802e-007 -0.0527215 18.33 67.8332 -19.3988 -8.13649 25.2327 3.48774 
